<svg width="1506" height="466" viewBox="0 0 1506 466" fill="none" xmlns="http://www.w3.org/2000/svg">
<mask id="mask0_13_7" style="mask-type:alpha" maskUnits="userSpaceOnUse" x="0" y="0" width="1512" height="466">
<rect width="1511.35" height="466" fill="#D9D9D9"/>
</mask>
<g mask="url(#mask0_13_7)">
<path fill-rule="evenodd" clip-rule="evenodd" d="M0 82.4592L62.973 68.3197C125.946 54.1802 251.892 26.5438 377.838 17.5459C503.784 7.90537 629.73 17.5459 755.676 31.0428C881.622 45.1823 1007.57 63.8207 1133.51 68.3197C1259.46 72.8186 1385.41 63.8207 1448.38 59.3218L1511.35 54.1802V276.556H1448.38C1385.41 276.556 1259.46 276.556 1133.51 276.556C1007.57 276.556 881.622 276.556 755.676 276.556C629.73 276.556 503.784 276.556 377.838 276.556C251.892 276.556 125.946 276.556 62.973 276.556H0V82.4592Z" fill="#4F47C8"/>
<path fill-rule="evenodd" clip-rule="evenodd" d="M1511.35 465.406L1448.38 479.545C1385.41 493.685 1259.46 521.321 1133.51 530.319C1007.57 539.959 881.622 530.319 755.676 516.822C629.73 502.682 503.784 484.044 377.838 479.545C251.892 475.046 125.946 484.044 62.9731 488.543L0.00012207 493.685V271.309H62.9731C125.946 271.309 251.892 271.309 377.838 271.309C503.784 271.309 629.73 271.309 755.676 271.309C881.622 271.309 1007.57 271.309 1133.51 271.309C1259.46 271.309 1385.41 271.309 1448.38 271.309H1511.35V465.406Z" fill="#4F47C8"/>
</g>
</svg>
