<svg width="1506" height="264" viewBox="0 0 1506 264" fill="none" xmlns="http://www.w3.org/2000/svg">
<path fill-rule="evenodd" clip-rule="evenodd" d="M0 69.4592L62.973 55.3197C125.946 41.1802 251.892 13.5438 377.838 4.54595C503.784 -5.09463 629.73 4.54595 755.676 18.0428C881.622 32.1823 1007.57 50.8207 1133.51 55.3197C1259.46 59.8186 1385.41 50.8207 1448.38 46.3218L1511.35 41.1802V263.556H1448.38C1385.41 263.556 1259.46 263.556 1133.51 263.556C1007.57 263.556 881.622 263.556 755.676 263.556C629.73 263.556 503.784 263.556 377.838 263.556C251.892 263.556 125.946 263.556 62.973 263.556H0V69.4592Z" fill="#4F47C8"/>
</svg>
